<?xml version="1.0" encoding="utf-8"?>
<!-- Generator: Adobe Illustrator 22.0.1, SVG Export Plug-In . SVG Version: 6.00 Build 0)  -->
<svg version="1.1" id="Layer_1" xmlns="http://www.w3.org/2000/svg" xmlns:xlink="http://www.w3.org/1999/xlink" x="0px" y="0px"
	 viewBox="0 0 475 220" style="enable-background:new 0 0 475 220;" xml:space="preserve">
<style type="text/css">
	.st0{fill:#FFFFFF;}
	.st1{filter:url(#Adobe_OpacityMaskFilter);}
	.st2{mask:url(#b_1_);fill:#FFFFFF;}
	.st3{filter:url(#Adobe_OpacityMaskFilter_1_);}
	.st4{mask:url(#d_1_);fill:#FFFFFF;}
	.st5{filter:url(#Adobe_OpacityMaskFilter_2_);}
	.st6{mask:url(#f_1_);fill:#FFFFFF;}
</style>
<g>
	<path class="st0" d="M56.4,127.9h9.2c8.3,0,15.4-3,15.4-15.8c0-10.5-5.3-15.6-15.8-15.6h-8.7C56.4,96.5,56.4,127.9,56.4,127.9z
		 M65.8,64.7c11,0,14.2-4.8,14.2-13.3c0-8.2-4.6-13.3-14.4-13.3h-9.2v26.6H65.8z M0,4.4h83.2c41.3,0,54.1,20.6,54.1,40.3
		c0,16.5-9.4,27.7-24.5,32.8c12.8,4.1,28.9,14.2,28.9,36.7c0,25.9-17.9,47.4-59.8,47.4H0V4.4z M474.1,161.6h-39.9
		c-0.7-2.5-2.3-8.7-2.5-13.1c-8.7,12.1-22.2,17.2-41.5,17.2c-53.9,0-67.4-43.8-67.4-79.5c0-50,25-85.9,79.1-85.9
		c53,0,70.8,26.4,72.4,53.6h-57.8c-1.4-7.6-3.4-14.2-14.4-14.2c-11.9,0-17.7,11.9-17.7,44.5c0,27.7,4.6,42.2,17.7,42.2
		c11.9,0,14.9-9.6,14.9-19.7v-2.1h-14.9V69.7h72V161.6"/>
	<g transform="translate(2.643 193.525)">
		<defs>
			<filter id="Adobe_OpacityMaskFilter" filterUnits="userSpaceOnUse" x="0" y="0" width="72.5" height="25.6">
				<feColorMatrix  type="matrix" values="1 0 0 0 0  0 1 0 0 0  0 0 1 0 0  0 0 0 1 0"/>
			</filter>
		</defs>
		<mask maskUnits="userSpaceOnUse" x="0" y="0" width="72.5" height="25.6" id="b_1_">
			<g class="st1">
				<path id="a_1_" class="st0" d="M0,25.6h72.5V0H0C0,0,0,25.6,0,25.6z"/>
			</g>
		</mask>
		<path class="st2" d="M9.4,20.8c1.9,0,3.5-0.9,3.5-3.4c0-2.1-1.6-3-3.5-3H6.1v6.4H9.4L9.4,20.8z M8.8,10c1.6,0,3.2-0.4,3.2-2.6
			c0-2.2-1.4-2.5-2.9-2.5H6.1V10H8.8L8.8,10z M0,0.5h10.6c4.4,0,7.7,1.5,7.7,6c0,3.4-1.9,4.7-5.1,5.4V12c3.6,0.4,5.8,2.3,5.8,6.1
			c0,4.8-3.5,7.2-8.1,7.2H0V0.5L0,0.5z M26.3,0.5h6.1v15.9c0,3.2,1.3,4.5,3.8,4.5c2.5,0,4-1.3,4-4.6V0.5h5.9v15.7
			c0,5.7-3.7,9.5-10.1,9.5c-6,0-9.8-3.5-9.8-9L26.3,0.5 M58.8,17.1c-0.4,2,0.3,4.3,4.2,4.3c2.6,0,3.4-1,3.4-2.4
			c0-2.1-2.1-2.6-4.5-3.4c-3.6-1.2-8.1-3-8.1-8.2c0-4.6,3.6-7.4,9.6-7.3c7.4,0.1,9.5,4.5,8.7,8.3l-5.6,0.5C66.9,6,65.9,4.4,63,4.4
			c-1.9,0-3,0.7-3,2.3c0,2.1,2,2.7,4.4,3.5c3.7,1.2,8.2,2.8,8.2,7.9c0,4.4-3.3,7.6-9.8,7.6c-6.1,0-10.2-2.8-9.4-8.1L58.8,17.1"/>
	</g>
	<path class="st0" d="M80.8,194h19.8v4.5h-6.9v20.2h-6.1v-20.2h-6.7V194 M107.4,194h6.1v20.2h10.3v4.5h-16.4V194 M130.5,194h16.4
		v4.5h-10.3v5.3h8.6v4.5h-8.6v5.8h10.6v4.5h-16.8V194 M174.6,214.3c2.7,0,5.3-1.6,5.3-8.1c0-6.4-2.6-7.8-5.3-7.8h-2.8v15.9
		L174.6,214.3L174.6,214.3z M165.7,194h9.5c6.2,0,10.9,3.6,10.9,12.2c0,8.5-4.6,12.5-10.9,12.5h-9.5V194z"/>
	<g transform="translate(191.543 193.525)">
		<defs>
			<filter id="Adobe_OpacityMaskFilter_1_" filterUnits="userSpaceOnUse" x="0.7" y="0" width="40.2" height="25.6">
				<feColorMatrix  type="matrix" values="1 0 0 0 0  0 1 0 0 0  0 0 1 0 0  0 0 0 1 0"/>
			</filter>
		</defs>
		<mask maskUnits="userSpaceOnUse" x="0.7" y="0" width="40.2" height="25.6" id="d_1_">
			<g class="st3">
				<path id="c_1_" class="st0" d="M0.7,25.6h40.2V0H0.7V25.6z"/>
			</g>
		</mask>
		<path class="st4" d="M0.7,0.5h12.8v4.3h-3.3v16.1h3.3v4.3H0.7v-4.3H4V4.8H0.7V0.5 M30.7,12.7h10.2v12.5h-4.1V21
			c-0.9,2.8-2.9,4.6-7.1,4.6c-5.7,0-10-4-10-12.9C19.7,3.7,24,0,30.7,0c7.6,0,10.6,4.3,9.7,8.7l-5.8,0.6c0.4-3.4-1.2-5-3.7-5
			c-2.7,0-5,1.9-5,8.5c0,6.5,2,8.4,5,8.4c2.8,0,4.3-1.7,4.4-3.4v-0.7h-4.6V12.7"/>
	</g>
	<path class="st0" d="M239.2,194H252v4.3h-3.3v16.1h3.3v4.3h-12.8v-4.3h3.3v-16.1h-3.3V194 M257.6,194h19.8v4.5h-6.9v20.2h-6.1
		v-20.2h-6.8L257.6,194 M288.4,209.5h5.3l-1.7-5.2c-0.6-1.8-0.8-4.3-0.8-4.3H291c0,0-0.4,2.5-0.9,4.2L288.4,209.5L288.4,209.5z
		 M288.4,194h6.2l8.4,24.8h-6.2l-1.5-4.7h-8.3l-1.5,4.7h-5.4L288.4,194z"/>
	<g transform="translate(308.917 193.525)">
		<defs>
			<filter id="Adobe_OpacityMaskFilter_2_" filterUnits="userSpaceOnUse" x="0.5" y="0" width="136.8" height="25.6">
				<feColorMatrix  type="matrix" values="1 0 0 0 0  0 1 0 0 0  0 0 1 0 0  0 0 0 1 0"/>
			</filter>
		</defs>
		<mask maskUnits="userSpaceOnUse" x="0.5" y="0" width="136.8" height="25.6" id="f_1_">
			<g class="st5">
				<path id="e_1_" class="st0" d="M0.5,25.6h136.8V0H0.5V25.6z"/>
			</g>
		</mask>
		<path class="st6" d="M0.5,0.5h6.1v20.2h10.3v4.5H0.5V0.5 M43.9,12.7h10.2v12.5h-4.1V21c-0.9,2.8-2.9,4.6-7.1,4.6
			c-5.7,0-10-4-10-12.9c0-9,4.3-12.7,11.1-12.7c7.6,0,10.6,4.3,9.7,8.7l-5.8,0.6c0.4-3.4-1.2-5-3.7-5c-2.7,0-5,1.9-5,8.5
			c0,6.5,2,8.4,5,8.4c2.8,0,4.3-1.7,4.4-3.4v-0.7h-4.6L43.9,12.7 M68,4.9V11h2.2c1.8,0,3.8-0.6,3.8-3.2c0-2.2-1.4-2.9-3.1-2.9
			C71,4.9,68,4.9,68,4.9z M61.9,0.5h10.2c4.8,0,8.1,2.3,8.1,6.9c0,3.7-2.5,5.9-5,6.7c0.7,0.6,1.3,1.5,1.7,2.3c1,2.1,1.7,4.4,3.9,4.4
			c0.6,0,1-0.2,1-0.2L81.4,25c0,0-1.3,0.3-2.5,0.3c-2.9,0-4.6-1.1-6.3-5.1c-0.7-1.8-1.8-4.8-3.1-4.8H68v9.8h-6.1V0.5z M103.8,12.5
			c0-6.2-2.4-8.1-5.1-8.1c-2.6,0-5,2-5,8.1c0,6.9,2.4,8.8,5,8.8C101.4,21.3,103.8,19.4,103.8,12.5z M87.4,12.5
			C87.4,3.6,92.2,0,98.8,0c6.5,0,11.3,3.6,11.3,12.5c0,9.9-4.9,13.2-11.3,13.2C92.2,25.7,87.4,22.1,87.4,12.5L87.4,12.5z M117.4,0.5
			h6.1v15.9c0,3.2,1.3,4.5,3.8,4.5c2.5,0,4-1.3,4-4.6V0.5h5.9v15.7c0,5.7-3.7,9.5-10.1,9.5c-6,0-9.8-3.5-9.8-9V0.5"/>
	</g>
	<path class="st0" d="M460.8,198.4v7h2.9c1.9,0,3.6-1,3.6-3.7c0-2.5-1.7-3.3-3.6-3.3L460.8,198.4L460.8,198.4z M454.6,194H465
		c4.9,0,8.4,2.5,8.4,7.4c0,5.4-3.4,8.5-8.4,8.5h-4.3v8.8h-6.1V194z M215.5,123.3h11.2c15.1,0,19.7-6.6,19.7-41.2
		c0-34.1-4.6-39.6-20.6-39.6h-10.3V123.3z M160.2,4.4h70.6c53.6,0,77.3,29.1,77.3,76.8c0,49.3-26.4,80.4-77.7,80.4h-70.1L160.2,4.4
		L160.2,4.4z"/>
</g>
</svg>
