<svg id="Layer_1" data-name="Layer 1" xmlns="http://www.w3.org/2000/svg" viewBox="0 0 150.17 129.22"><title>BUI-v2</title><circle cx="46.25" cy="70.48" r="44.25" style="fill:#faee6c;stroke:#56524d;stroke-linecap:round;stroke-linejoin:round;stroke-width:4px"/><path d="M11.7,131.43S178.91,31.13,150.29,70.68s0,60.75,0,60.75H11.7" transform="translate(-5.42 -4.21)" style="fill:#0069ff;stroke:#56524d;stroke-linecap:round;stroke-linejoin:round;stroke-width:4px"/><polygon points="46.25 89.82 100.2 111.39 114.45 40.19 83.78 29.58 46.25 89.82" style="fill:#fff"/><polygon points="104.23 127.22 62.3 126.5 33.1 98.78 38 86.52 109.13 114.96 104.23 127.22" style="fill:#fff;stroke:#56524d;stroke-linecap:round;stroke-linejoin:round;stroke-width:4px"/><path d="M51.66,103c1.45,2.3,2.8,4.57,6.89,6.2s6.63,0.93,9.27.26l0.09,0c1.45,2.3,2.8,4.57,6.89,6.2s6.63,0.93,9.27.26l0.09,0c1.45,2.3,2.8,4.57,6.89,6.2s6.63,0.93,9.27.26l0.09,0" transform="translate(-5.42 -4.21)" style="fill:none;stroke:#0069ff;stroke-linecap:round;stroke-linejoin:round;stroke-width:3px"/><polyline points="96.41 25.01 99.83 16.47 112.64 21.59 109.22 30.14" style="fill:none;stroke:#56524d;stroke-linecap:round;stroke-linejoin:round;stroke-width:4px"/><rect x="100.77" y="18.23" width="9.7" height="40.2" transform="translate(25.4 117.96) rotate(-68.21)" style="fill:none;stroke:#56524d;stroke-linecap:round;stroke-linejoin:round;stroke-width:4px"/><line x1="113.03" y1="1.5" x2="110.69" y2="7.35" style="fill:none;stroke:#0069ff;stroke-linecap:round;stroke-linejoin:round;stroke-width:3px"/><line x1="121.96" y1="10.67" x2="116.24" y2="13.12" style="fill:none;stroke:#0069ff;stroke-linecap:round;stroke-linejoin:round;stroke-width:3px"/><line x1="100.64" y1="2.04" x2="103.06" y2="7.85" style="fill:none;stroke:#0069ff;stroke-linecap:round;stroke-linejoin:round;stroke-width:3px"/><line x1="112.49" y1="45.12" x2="48.79" y2="87.82" style="fill:#fff"/><line x1="83.71" y1="33.61" x2="48.79" y2="87.82" style="fill:none;stroke:#56524d;stroke-linecap:round;stroke-linejoin:round;stroke-width:4px"/><polyline points="46.25 89.82 112.5 45.12 100.42 108.46" style="fill:none;stroke:#56524d;stroke-linecap:round;stroke-linejoin:round;stroke-width:4px"/><line x1="83.71" y1="33.61" x2="100.42" y2="108.46" style="fill:none;stroke:#56524d;stroke-linecap:round;stroke-linejoin:round;stroke-width:4px"/></svg>