<?xml version="1.0" encoding="utf-8"?>
<!-- Generator: Adobe Illustrator 19.2.1, SVG Export Plug-In . SVG Version: 6.00 Build 0)  -->
<svg version="1.1" id="Layer_1" xmlns="http://www.w3.org/2000/svg" xmlns:xlink="http://www.w3.org/1999/xlink" x="0px" y="0px"
	 viewBox="0 0 81.2 140.8" style="enable-background:new 0 0 81.2 140.8;" xml:space="preserve">
<style type="text/css">
	.st0{fill:none;stroke:#298EEA;stroke-width:3;stroke-linecap:round;stroke-linejoin:round;stroke-miterlimit:10;}
	.st1{fill:none;stroke:#56524D;stroke-width:4;stroke-linecap:round;stroke-linejoin:round;stroke-miterlimit:10;}
</style>
<path class="st0" d="M14.4,117.8c2.2,1.6,4.3,3.2,8.7,3.2c4.3,0,6.5-1.6,8.7-3.2h0.1c2.2,1.6,4.3,3.2,8.7,3.2c4.3,0,6.5-1.6,8.7-3.2
	h0.1c2.2,1.6,4.3,3.2,8.7,3.2c4.3,0,6.5-1.6,8.7-3.2h0.1"/>
<polygon class="st1" points="79,122.7 39.7,137.6 2.3,122.7 2.3,109.5 79,109.5 "/>
<polyline class="st1" points="33.7,30.7 33.7,21.5 47.6,21.5 47.6,30.7 "/>
<rect x="20.5" y="32.9" class="st1" width="40.2" height="9.7"/>
<g>
	<line class="st0" x1="40.5" y1="2.7" x2="40.5" y2="9"/>
	<line class="st0" x1="52.1" y1="7.9" x2="47.7" y2="12.3"/>
	<line class="st0" x1="29.1" y1="7.8" x2="33.6" y2="12.3"/>
</g>
<g>
	<g>
		<line class="st1" x1="25.2" y1="43.4" x2="12.9" y2="106.7"/>
		<line class="st1" x1="56.1" y1="43.4" x2="68.4" y2="106.7"/>
	</g>
	<line class="st1" x1="25.2" y1="43.4" x2="68.4" y2="106.7"/>
	<line class="st1" x1="56.1" y1="43.4" x2="12.9" y2="106.7"/>
</g>
</svg>
