<?xml version="1.0" encoding="utf-8"?>
<!-- Generator: Adobe Illustrator 19.2.1, SVG Export Plug-In . SVG Version: 6.00 Build 0)  -->
<svg version="1.1" id="Layer_1" xmlns="http://www.w3.org/2000/svg" xmlns:xlink="http://www.w3.org/1999/xlink" x="0px" y="0px"
	 viewBox="0 0 612 378.3" style="enable-background:new 0 0 612 378.3;" xml:space="preserve">
<path d="M606.9,138.4v-0.1v-0.2c0-0.2,0-0.4-0.1-0.6v-0.1v-0.1c-0.1-0.3-0.1-0.5-0.2-0.8v-0.1c0,0,0-0.1-0.1-0.1
	c-0.1-0.1-0.1-0.3-0.2-0.4c0,0,0-0.1-0.1-0.1c0-0.1-0.1-0.1-0.1-0.2s-0.1-0.1-0.1-0.2c-0.1-0.1-0.1-0.2-0.2-0.3c0,0,0-0.1-0.1-0.1
	c0,0,0-0.1-0.1-0.1c-0.1-0.1-0.1-0.2-0.2-0.2l-0.1-0.1l-0.2-0.2l-0.1-0.1l-0.3-0.3c0,0,0-0.1-0.1-0.1c-0.2-0.2-0.5-0.4-0.7-0.6h-0.1
	l-0.1-0.1c-0.2-0.1-0.3-0.2-0.5-0.3c-0.1,0-0.1-0.1-0.2-0.1c0,0-0.1,0-0.1-0.1c-0.2-0.1-0.3-0.1-0.5-0.2c-0.1,0-0.1,0-0.1-0.1
	c-0.1,0-0.1,0-0.2-0.1c-0.1,0-0.1,0-0.2-0.1c-0.1,0-0.2-0.1-0.4-0.1h-0.1c-0.1,0-0.3-0.1-0.4-0.1h-0.9H600H423L311.4,9.8
	c-0.2-0.2-0.4-0.4-0.6-0.5l-0.2-0.2c-0.2-0.1-0.3-0.2-0.5-0.4c-0.1-0.1-0.2-0.2-0.4-0.2c-0.1-0.1-0.2-0.1-0.4-0.2L308.7,8
	c-0.1-0.1-0.3-0.1-0.4-0.1c-0.2-0.1-0.4-0.1-0.5-0.2c-0.2,0-0.4-0.1-0.6-0.1c-0.1,0-0.3-0.1-0.4-0.1h-1c-0.2,0-0.4,0.1-0.6,0.1
	c-0.1,0-0.3,0-0.4,0.1c-0.2,0-0.4,0.1-0.6,0.2c-0.1,0-0.2,0.1-0.3,0.1l-0.6,0.3c-0.1,0.1-0.2,0.1-0.3,0.2c-0.1,0.1-0.2,0.2-0.4,0.3
	c-0.2,0.1-0.3,0.2-0.5,0.3l-0.2,0.2c-0.2,0.2-0.4,0.3-0.6,0.5l-111.6,122h-177h-1.2h-0.1c-0.1,0-0.2,0.1-0.4,0.1h-0.1
	c-0.1,0-0.2,0.1-0.4,0.1c-0.1,0-0.1,0-0.2,0.1c-0.1,0-0.1,0-0.2,0.1c0,0-0.1,0-0.1,0.1c-0.2,0.1-0.3,0.1-0.5,0.2c0,0-0.1,0-0.1,0.1
	c-0.1,0-0.1,0.1-0.2,0.1c-0.2,0.1-0.3,0.2-0.5,0.3l-0.1,0.1H8.5c-0.3,0.2-0.5,0.4-0.7,0.6l-0.1,0.1l-0.3,0.3l-0.1,0.1l-0.2,0.2
	L7,134.5c-0.1,0.1-0.1,0.2-0.2,0.2c0,0,0,0.1-0.1,0.1c0,0,0,0.1-0.1,0.1c-0.1,0.1-0.1,0.2-0.2,0.4c0,0.1-0.1,0.1-0.1,0.2
	s-0.1,0.1-0.1,0.2c0,0,0,0.1-0.1,0.1c-0.1,0.1-0.1,0.3-0.2,0.4c0,0,0,0.1-0.1,0.1v0.1c-0.1,0.3-0.2,0.5-0.2,0.8v0.2
	c0,0.2-0.1,0.4-0.1,0.6v1.8c0,0.2,0.1,0.4,0.1,0.6v0.2c0,0.1,0,0.1,0.1,0.2c0.1,0.2,0.1,0.4,0.2,0.5v0.1l96.5,223.1
	c0.1,0.3,0.3,0.6,0.5,0.9c0,0,0,0.1,0.1,0.1c0.2,0.3,0.4,0.5,0.6,0.8l0.3,0.3l0.5,0.5l0.3,0.3c0.2,0.1,0.4,0.3,0.6,0.4
	c0.1,0.1,0.3,0.1,0.4,0.2l0.6,0.3c0.1,0.1,0.3,0.1,0.4,0.2c0.1,0,0.1,0.1,0.2,0.1c0.2,0.1,0.4,0.1,0.5,0.1s0.2,0.1,0.4,0.1
	c0.4,0.1,0.7,0.1,1.1,0.1h394.6c0.4,0,0.8,0,1.1-0.1c0.1,0,0.2-0.1,0.4-0.1c0.2-0.1,0.5-0.1,0.7-0.2c0.1,0,0.3-0.1,0.4-0.2l0.6-0.3
	c0.1-0.1,0.3-0.1,0.4-0.2c0.2-0.1,0.4-0.2,0.6-0.4l0.3-0.3c0.2-0.2,0.4-0.3,0.5-0.5l0.3-0.3c0.2-0.2,0.4-0.5,0.6-0.8
	c0-0.1,0.1-0.1,0.1-0.2c0.2-0.3,0.3-0.6,0.5-0.9l0.1-0.1l96.4-223v-0.1c0.1-0.2,0.1-0.4,0.2-0.5c0-0.1,0-0.1,0.1-0.2v-0.1v-0.1
	c0-0.2,0.1-0.4,0.1-0.6v-0.1v-0.2v-0.2v-0.3v-0.2L606.9,138.4C606.9,138.5,606.9,138.5,606.9,138.4L606.9,138.4z M567.6,145.8
	l-93.1,42.3l-38.7-42.3H567.6z M313.2,32.5l90.8,99.3l12.8,14l44.3,48.4l-147.9,67.2L313.2,32.5L313.2,32.5z M299.2,32.5v228.9
	l-147.9-67.2L299.2,32.5z M176.6,145.8l-38.7,42.3l-93.1-42.3H176.6z M26.1,152.7L136.8,203l152.5,69.3l-176.8,80.3L26.1,152.7
	L26.1,152.7z M141.2,354.9l165-75l165,75H141.2z M499.9,352.6l-176.8-80.3l263.2-119.6L499.9,352.6L499.9,352.6z"/>
</svg>
